<?xml version="1.0" encoding="utf-8"?>
<!-- Generator: Adobe Illustrator 21.0.0, SVG Export Plug-In . SVG Version: 6.00 Build 0)  -->
<svg version="1.1" id="Layer_1" xmlns="http://www.w3.org/2000/svg" xmlns:xlink="http://www.w3.org/1999/xlink" x="0px" y="0px"
	 viewBox="0 0 215 48" style="enable-background:new 0 0 215 48;" xml:space="preserve">
<style type="text/css">
	.st0{fill:#2A93CE;}
	.st1{fill:#8158A4;}
	.st2{fill:#6E6F72;}
</style>
<g id="XMLID_20_">
	<path id="XMLID_444_" class="st0" d="M11.5,26c1.5,3.8,4.7,6.7,4.7,6.7V5.9c0,0-3.6,3.1-5,7.5c0,0,0.7-4.6,5-8.7V2.2
		c0-0.5-0.4-0.9-0.9-0.9H7.7c-0.2,0-0.4,0.1-0.6,0.2l0,0l0,0l0,0L1.1,8C1,8.2,0.9,8.4,0.9,8.6v3.3c0,0.3,0.4,0.6,0.7,0.4l3.2-2.1
		c0,0,1.8-1.2,2.1,1.3v27.8c0,2.3,1.4,4.4,3.5,5.3l4.8,2c0.5,0.2,1.1-0.2,1.1-0.7V34C12,29.3,11.5,26,11.5,26z"/>
	<path id="XMLID_436_" class="st1" d="M28.2,1.3c-9.9,0-18,8.1-18,18s8.1,18,18,18s18-8.1,18-18S38.2,1.3,28.2,1.3z M28.2,28.1
		c-4.9,0-8.8-3.9-8.8-8.8s3.9-8.8,8.8-8.8s8.8,3.9,8.8,8.8S33.1,28.1,28.2,28.1z"/>
	<path id="XMLID_433_" class="st0" d="M58.3,21.3v5.5H54V7.5h15.5c5.5,0,7.3,1.7,7.3,6.2v1.7c0,4.6-1.6,5.9-7.3,5.9H58.3z
		 M72.4,13.9c0-2.1-0.7-2.7-3.1-2.7h-11v6.6h11.1c2.3,0,3-0.5,3-2.6V13.9z"/>
	<path id="XMLID_431_" class="st0" d="M79.5,26.8V7.5h4.3v19.4h-4.3V26.8z"/>
	<path id="XMLID_429_" class="st0" d="M105.3,26.4L91.2,13.1v13.8h-4v-18c0-1.2,0.9-1.8,2.3-1.8c1,0,1.6,0.3,2,0.7l14.2,13.7v-14
		h4.1v18c0,1.3-0.9,1.8-2.2,1.8C106.7,27.3,106,27,105.3,26.4z"/>
	<path id="XMLID_427_" class="st0" d="M120.3,26.8c-5.7,0-7.4-1.8-7.4-6.6v-6.1c0-4.9,1.7-6.6,7.4-6.6h5.1v3.7h-4.9
		c-2.6,0-3.3,0.8-3.3,3.1V20c0,2.6,0.8,3.1,3.3,3.1h7.3c2.4,0,3.3-0.5,3.3-3.3v-4.5h4.3v4.8c0,4.9-1.7,6.6-7.4,6.6L120.3,26.8
		L120.3,26.8z"/>
	<path id="XMLID_425_" class="st0" d="M172.1,26.8c-5.7,0-7.4-1.8-7.4-6.6V7.5h4.3V20c0,2.2,0.7,3.1,3.5,3.1H184l-2.4,3.7
		C181.6,26.8,172.1,26.8,172.1,26.8z"/>
	<rect id="XMLID_424_" x="129.2" y="15.4" class="st0" width="6.3" height="4"/>
	<path id="XMLID_423_" class="st0" d="M153.6,8.9C153,7.8,152.1,7,150.4,7c-1.8,0-2.6,0.8-3.3,1.9l-11.2,17.9h5l2.5-4l2.3-3.8l0,0
		l4.7-7.6l4.7,7.6h-7.3l-2,3.3H157l2.8,4.5h5L153.6,8.9z"/>
	<path id="XMLID_422_" class="st0" d="M201.7,8.9C201,7.8,200.2,7,198.4,7s-2.6,0.8-3.3,1.9l-11.2,17.9h5l2.5-4l0,0l3.1-5l0,0
		l3.9-6.4l4.7,7.6h-7.3l-2,3.3h11.3l2.8,4.5h5L201.7,8.9z"/>
	<g id="XMLID_9_">
		<g id="XMLID_755_">
			<path id="XMLID_835_" class="st2" d="M56.4,34.7c0.8,0,1.4,0.2,1.8,0.5c0.4,0.3,0.6,0.8,0.6,1.4c0,0.5-0.1,0.9-0.3,1.3
				c-0.2,0.3-0.6,0.5-1,0.6c0.5,0.1,0.9,0.3,1.2,0.6s0.4,0.8,0.4,1.3c0,0.8-0.2,1.3-0.6,1.7c-0.4,0.4-1,0.5-1.8,0.5h-2.4v-7.9
				C54.3,34.7,56.4,34.7,56.4,34.7z M55.2,38h1.1c0.5,0,0.9-0.1,1.2-0.3c0.2-0.2,0.4-0.5,0.4-1c0-0.4-0.1-0.7-0.3-0.9
				s-0.6-0.3-1.1-0.3h-1.1V38H55.2z M55.2,41.7h1.2c0.6,0,1-0.1,1.3-0.3s0.4-0.6,0.4-1.1s-0.1-0.8-0.4-1.1c-0.3-0.2-0.7-0.3-1.2-0.3
				h-1.2L55.2,41.7L55.2,41.7z"/>
			<path id="XMLID_832_" class="st2" d="M60.4,39.9c0-1,0.2-1.7,0.5-2.2s0.9-0.7,1.6-0.7c0.7,0,1.3,0.2,1.6,0.7
				c0.3,0.5,0.5,1.2,0.5,2.2s-0.2,1.8-0.5,2.2c-0.3,0.5-0.9,0.7-1.6,0.7c-0.7,0-1.3-0.2-1.6-0.7C60.6,41.6,60.4,40.9,60.4,39.9z
				 M62.5,37.8c-0.4,0-0.7,0.2-0.9,0.5s-0.3,0.9-0.3,1.6c0,0.8,0.1,1.3,0.3,1.6s0.5,0.5,0.9,0.5s0.7-0.2,0.8-0.5
				c0.2-0.3,0.3-0.9,0.3-1.6c0-0.8-0.1-1.3-0.3-1.6C63.2,37.9,62.9,37.8,62.5,37.8z"/>
			<path id="XMLID_829_" class="st2" d="M66,39.9c0-1,0.2-1.7,0.5-2.2s0.9-0.7,1.6-0.7s1.3,0.2,1.6,0.7c0.3,0.5,0.5,1.2,0.5,2.2
				s-0.2,1.8-0.5,2.2c-0.3,0.5-0.9,0.7-1.6,0.7s-1.3-0.2-1.6-0.7C66.1,41.6,66,40.9,66,39.9z M68.1,37.8c-0.4,0-0.7,0.2-0.9,0.5
				c-0.2,0.3-0.3,0.9-0.3,1.6c0,0.8,0.1,1.3,0.3,1.6s0.5,0.5,0.9,0.5s0.7-0.2,0.8-0.5c0.2-0.3,0.3-0.9,0.3-1.6
				c0-0.8-0.1-1.3-0.3-1.6C68.7,37.9,68.5,37.8,68.1,37.8z"/>
			<path id="XMLID_827_" class="st2" d="M71.5,40.9h1c0,0.3,0.1,0.6,0.3,0.8s0.4,0.3,0.7,0.3c0.3,0,0.5-0.1,0.7-0.2
				c0.2-0.1,0.2-0.3,0.2-0.5s-0.1-0.3-0.2-0.5c-0.1-0.1-0.3-0.3-0.6-0.4l-1-0.5c-0.4-0.2-0.6-0.4-0.8-0.6c-0.1-0.2-0.2-0.4-0.2-0.7
				c0-0.5,0.2-0.9,0.5-1.1c0.4-0.3,0.8-0.4,1.4-0.4s1,0.1,1.3,0.4s0.5,0.6,0.5,1.1v0.1h-1c0-0.3-0.1-0.5-0.2-0.6s-0.4-0.2-0.7-0.2
				c-0.2,0-0.4,0.1-0.6,0.2c-0.2,0.1-0.2,0.3-0.2,0.5c0,0.1,0,0.3,0.1,0.4s0.2,0.2,0.4,0.3l0.9,0.5c0.5,0.3,0.9,0.5,1.1,0.7
				s0.3,0.5,0.3,0.9c0,0.5-0.2,0.9-0.5,1.2c-0.4,0.3-0.8,0.5-1.4,0.5s-1.1-0.2-1.4-0.5S71.5,41.5,71.5,40.9z"/>
			<path id="XMLID_825_" class="st2" d="M78.1,35.5v1.6h1.1v0.7h-1.1v3.3c0,0.3,0,0.5,0.1,0.6s0.3,0.2,0.5,0.2c0.1,0,0.2,0,0.4,0
				l0,0v0.7c-0.1,0-0.3,0.1-0.4,0.1s-0.2,0-0.4,0c-0.5,0-0.8-0.1-1-0.3s-0.3-0.5-0.3-1v-3.6h-0.8v-0.7H77V36L78.1,35.5z"/>
			<path id="XMLID_823_" class="st2" d="M84.7,35.5v1.6h1.1v0.7h-1.1v3.3c0,0.3,0,0.5,0.1,0.6s0.3,0.2,0.5,0.2c0.1,0,0.2,0,0.4,0
				l0,0v0.7c-0.1,0-0.3,0.1-0.4,0.1s-0.2,0-0.4,0c-0.5,0-0.8-0.1-1-0.3s-0.3-0.5-0.3-1v-3.6h-0.8v-0.7h0.8V36L84.7,35.5z"/>
			<path id="XMLID_820_" class="st2" d="M91,40.9c0,0.6-0.2,1-0.6,1.4c-0.3,0.3-0.8,0.5-1.4,0.5c-0.7,0-1.3-0.2-1.6-0.7
				c-0.3-0.5-0.5-1.2-0.5-2.3c0-1,0.2-1.7,0.5-2.2S88.3,37,89,37s1.2,0.2,1.5,0.5c0.3,0.4,0.5,0.9,0.5,1.7v0.9h-3.1v0.3
				c0,0.5,0.1,0.9,0.3,1.2c0.2,0.2,0.5,0.4,0.8,0.4s0.5-0.1,0.7-0.3s0.3-0.4,0.3-0.8C90,40.9,91,40.9,91,40.9z M87.9,39.4H90v-0.5
				c0-0.4-0.1-0.7-0.3-0.9s-0.4-0.3-0.8-0.3s-0.6,0.1-0.8,0.4C88,38.3,87.9,38.8,87.9,39.4z"/>
			<path id="XMLID_818_" class="st2" d="M95.4,40.8h1c0,0.6-0.2,1.1-0.5,1.5s-0.8,0.5-1.4,0.5c-0.7,0-1.3-0.2-1.6-0.7
				s-0.5-1.2-0.5-2.2s0.2-1.8,0.5-2.2s0.9-0.7,1.6-0.7c0.6,0,1.1,0.2,1.4,0.5c0.4,0.3,0.5,0.7,0.5,1.2v0.1h-0.9
				c0-0.3-0.1-0.6-0.3-0.8c-0.2-0.2-0.4-0.3-0.7-0.3c-0.4,0-0.7,0.2-0.9,0.5s-0.3,0.9-0.3,1.6c0,0.8,0.1,1.3,0.3,1.6
				c0.2,0.3,0.5,0.5,0.8,0.5s0.6-0.1,0.7-0.3C95.3,41.4,95.4,41.1,95.4,40.8z"/>
			<path id="XMLID_816_" class="st2" d="M100.8,42.6v-3.5c0-0.5-0.1-0.9-0.2-1.1c-0.1-0.2-0.4-0.3-0.7-0.3c-0.4,0-0.6,0.1-0.8,0.4
				c-0.2,0.3-0.3,0.7-0.3,1.3v3.2h-0.9v-7.9h0.9v3c0.2-0.3,0.4-0.5,0.7-0.6s0.5-0.2,0.8-0.2c0.5,0,0.8,0.1,1.1,0.4
				c0.3,0.3,0.4,0.6,0.4,1.1v4.2C101.8,42.6,100.8,42.6,100.8,42.6z"/>
			<path id="XMLID_814_" class="st2" d="M106.3,42.6v-3.5c0-0.5-0.1-0.9-0.2-1.1c-0.1-0.2-0.4-0.3-0.7-0.3c-0.4,0-0.6,0.1-0.8,0.4
				c-0.2,0.3-0.3,0.7-0.3,1.3v3.2h-0.9V38c0-0.1,0-0.2,0-0.4c0-0.1,0-0.3,0-0.5h1v0.6c0.2-0.3,0.4-0.5,0.6-0.6s0.5-0.2,0.8-0.2
				c0.5,0,0.8,0.1,1.1,0.4c0.3,0.3,0.4,0.6,0.4,1.1v4.2H106.3z"/>
			<path id="XMLID_811_" class="st2" d="M109,35.7v-1h0.9v1H109z M109,42.6v-5.5h0.9v5.5H109z"/>
			<path id="XMLID_809_" class="st2" d="M114.6,40.8h1c0,0.6-0.2,1.1-0.5,1.5s-0.8,0.5-1.4,0.5c-0.7,0-1.3-0.2-1.6-0.7
				s-0.5-1.2-0.5-2.2s0.2-1.8,0.5-2.2s0.9-0.7,1.6-0.7c0.6,0,1.1,0.2,1.4,0.5c0.4,0.3,0.5,0.7,0.5,1.2v0.1h-0.9
				c0-0.3-0.1-0.6-0.3-0.8c-0.2-0.2-0.4-0.3-0.7-0.3c-0.4,0-0.7,0.2-0.9,0.5s-0.3,0.9-0.3,1.6c0,0.8,0.1,1.3,0.3,1.6
				c0.2,0.3,0.5,0.5,0.8,0.5s0.6-0.1,0.7-0.3C114.5,41.4,114.6,41.1,114.6,40.8z"/>
			<path id="XMLID_806_" class="st2" d="M118,38.5h-1v-0.1c0-0.5,0.2-0.8,0.5-1.1c0.3-0.2,0.8-0.4,1.5-0.4c0.6,0,1.1,0.1,1.4,0.4
				c0.3,0.3,0.5,0.7,0.5,1.2v2.6c0,0.3,0,0.5,0,0.7s0,0.5,0.1,0.7h-0.9l-0.1-0.7c-0.2,0.2-0.4,0.4-0.6,0.6s-0.5,0.2-0.8,0.2
				c-0.5,0-0.9-0.2-1.1-0.5s-0.4-0.7-0.4-1.2c0-0.6,0.2-1.1,0.6-1.4c0.4-0.3,1-0.5,1.8-0.5h0.5v-0.3c0-0.4-0.1-0.7-0.2-0.9
				s-0.3-0.2-0.7-0.2c-0.3,0-0.6,0.1-0.8,0.2C118.1,38,118,38.2,118,38.5L118,38.5z M119.8,39.7c-0.8,0-1.3,0.1-1.6,0.3
				c-0.3,0.2-0.5,0.5-0.5,0.9c0,0.3,0.1,0.5,0.2,0.7c0.2,0.2,0.4,0.3,0.6,0.3c0.4,0,0.7-0.1,0.9-0.4c0.2-0.3,0.3-0.7,0.3-1.2
				L119.8,39.7L119.8,39.7z"/>
			<path id="XMLID_804_" class="st2" d="M123.4,42.6h-0.9v-7.9h0.9V42.6z"/>
			<path id="XMLID_801_" class="st2" d="M129,38.5h-1v-0.1c0-0.5,0.2-0.8,0.5-1.1c0.3-0.2,0.8-0.4,1.5-0.4c0.6,0,1.1,0.1,1.4,0.4
				c0.3,0.3,0.5,0.7,0.5,1.2v2.6c0,0.3,0,0.5,0,0.7s0,0.5,0.1,0.7h-1l-0.1-0.7c-0.2,0.2-0.4,0.4-0.6,0.6s-0.5,0.2-0.8,0.2
				c-0.5,0-0.9-0.2-1.1-0.5s-0.4-0.7-0.4-1.2c0-0.6,0.2-1.1,0.6-1.4c0.4-0.3,1-0.5,1.8-0.5h0.5v-0.3c0-0.4-0.1-0.7-0.2-0.9
				c-0.1-0.2-0.3-0.2-0.7-0.2c-0.3,0-0.6,0.1-0.8,0.2C129.1,38,129,38.2,129,38.5L129,38.5z M130.9,39.7c-0.8,0-1.3,0.1-1.6,0.3
				s-0.5,0.5-0.5,0.9c0,0.3,0.1,0.5,0.2,0.7c0.2,0.2,0.4,0.3,0.6,0.3c0.4,0,0.7-0.1,0.9-0.4c0.2-0.3,0.3-0.7,0.3-1.2v-0.6H130.9z"/>
			<path id="XMLID_798_" class="st2" d="M133.7,43.2h1.1c0,0.3,0.1,0.5,0.2,0.6c0.1,0.1,0.3,0.2,0.6,0.2s0.6-0.1,0.7-0.3
				c0.1-0.2,0.2-0.5,0.2-1V42c-0.2,0.3-0.4,0.5-0.6,0.6c-0.2,0.1-0.4,0.2-0.7,0.2c-0.6,0-1.1-0.2-1.4-0.7c-0.3-0.5-0.4-1.2-0.4-2.3
				c0-1,0.1-1.7,0.4-2.1c0.3-0.5,0.8-0.7,1.4-0.7c0.3,0,0.5,0.1,0.7,0.2s0.4,0.3,0.6,0.5l0.1-0.5h1c0,0.1,0,0.3,0,0.4
				c0,0.2,0,0.3,0,0.6V43c0,0.3,0,0.6-0.1,0.8s-0.1,0.3-0.2,0.5c-0.2,0.2-0.4,0.4-0.6,0.4c-0.3,0.1-0.6,0.1-1,0.1
				c-0.6,0-1-0.1-1.3-0.4C133.9,44.1,133.7,43.7,133.7,43.2z M134.3,39.8c0,0.7,0.1,1.3,0.3,1.6s0.4,0.5,0.8,0.5
				c0.4,0,0.7-0.2,0.9-0.5s0.3-0.9,0.3-1.6c0-0.8-0.1-1.3-0.3-1.7s-0.5-0.5-0.9-0.5s-0.7,0.2-0.9,0.5
				C134.4,38.5,134.3,39,134.3,39.8z"/>
			<path id="XMLID_795_" class="st2" d="M139.2,35.7v-1h0.9v1H139.2z M139.2,42.6v-5.5h0.9v5.5H139.2z"/>
			<path id="XMLID_793_" class="st2" d="M142.8,42.6h-0.9v-7.9h0.9V42.6z"/>
			<path id="XMLID_790_" class="st2" d="M144.5,35.7v-1h0.9v1H144.5z M144.5,42.6v-5.5h0.9v5.5H144.5z"/>
			<path id="XMLID_788_" class="st2" d="M148.4,35.5v1.6h1.1v0.7h-1.1v3.3c0,0.3,0,0.5,0.1,0.6s0.3,0.2,0.5,0.2c0.1,0,0.2,0,0.4,0
				l0,0v0.7c-0.1,0-0.3,0.1-0.4,0.1c-0.1,0-0.2,0-0.4,0c-0.5,0-0.8-0.1-1-0.3s-0.3-0.5-0.3-1v-3.6h-0.8v-0.7h0.8V36L148.4,35.5z"/>
			<path id="XMLID_786_" class="st2" d="M152.5,44.7h-0.9l0.6-2.1l-1.9-5.5h1.1l1.3,4.4l1.3-4.4h1L152.5,44.7z"/>
			<path id="XMLID_784_" class="st2" d="M155.4,43.9l0.6-2.5h1l-0.9,2.5H155.4z"/>
			<path id="XMLID_781_" class="st2" d="M161.9,35.7v-1h0.9v1H161.9z M161.9,42.6v-5.5h0.9v5.5H161.9z"/>
			<path id="XMLID_779_" class="st2" d="M165.5,37.7c0.2-0.3,0.4-0.5,0.6-0.6c0.2-0.1,0.5-0.2,0.8-0.2s0.6,0.1,0.9,0.2
				c0.2,0.2,0.4,0.4,0.5,0.7c0.2-0.3,0.4-0.5,0.6-0.7c0.3-0.2,0.6-0.2,0.9-0.2c0.5,0,0.8,0.1,1.1,0.4s0.4,0.6,0.4,1.1v4.2h-0.9v-3.5
				c0-0.5-0.1-0.9-0.2-1.1c-0.1-0.2-0.4-0.3-0.7-0.3c-0.4,0-0.6,0.1-0.8,0.4s-0.3,0.7-0.3,1.3v3.2h-1v-3.5c0-0.5-0.1-0.9-0.2-1.1
				c-0.1-0.2-0.4-0.3-0.7-0.3c-0.4,0-0.6,0.1-0.8,0.4c-0.2,0.3-0.3,0.7-0.3,1.3v3.2h-0.9V38c0-0.1,0-0.2,0-0.4c0-0.1,0-0.3,0-0.5h1
				L165.5,37.7z"/>
			<path id="XMLID_776_" class="st2" d="M173,44.7v-6.6c0-0.3,0-0.5,0-0.6s0-0.3,0-0.4h1l0.1,0.5c0.2-0.2,0.4-0.4,0.6-0.5
				s0.5-0.2,0.7-0.2c0.6,0,1.1,0.2,1.4,0.7c0.3,0.5,0.4,1.2,0.4,2.1c0,1-0.1,1.8-0.4,2.2s-0.7,0.7-1.4,0.7c-0.3,0-0.5-0.1-0.8-0.2
				c-0.2-0.1-0.4-0.3-0.6-0.6v2.7h-1V44.7z M174,39.9c0,0.7,0.1,1.2,0.3,1.6c0.2,0.3,0.5,0.5,0.9,0.5s0.6-0.2,0.8-0.5
				s0.2-0.9,0.2-1.6c0-0.8-0.1-1.4-0.2-1.7c-0.2-0.3-0.4-0.5-0.8-0.5c-0.4,0-0.6,0.2-0.8,0.5S174,39.1,174,39.9z"/>
			<path id="XMLID_774_" class="st2" d="M179.5,37.1l0.1,0.7c0.1-0.3,0.3-0.5,0.5-0.6s0.5-0.2,0.9-0.2c0,0,0,0,0.1,0h0.1v1h-0.1H181
				c-0.5,0-0.8,0.1-1,0.3s-0.3,0.6-0.3,1v3.3h-0.9V38c0,0,0-0.3-0.1-0.6c0-0.1,0-0.2,0-0.3C178.7,37.1,179.5,37.1,179.5,37.1z"/>
			<path id="XMLID_771_" class="st2" d="M182.1,39.9c0-1,0.2-1.7,0.5-2.2s0.9-0.7,1.6-0.7c0.7,0,1.3,0.2,1.6,0.7s0.5,1.2,0.5,2.2
				s-0.2,1.8-0.5,2.2c-0.3,0.5-0.9,0.7-1.6,0.7c-0.7,0-1.3-0.2-1.6-0.7C182.3,41.6,182.1,40.9,182.1,39.9z M184.2,37.8
				c-0.4,0-0.7,0.2-0.9,0.5s-0.3,0.9-0.3,1.6c0,0.8,0.1,1.3,0.3,1.6s0.5,0.5,0.9,0.5s0.7-0.2,0.8-0.5s0.3-0.9,0.3-1.6
				c0-0.8-0.1-1.3-0.3-1.6C184.9,37.9,184.6,37.8,184.2,37.8z"/>
			<path id="XMLID_769_" class="st2" d="M189,42.6l-1.7-5.5h1.1l0.9,3.2c0.1,0.3,0.1,0.5,0.2,0.8c0.1,0.3,0.1,0.6,0.2,0.9
				c0.1-0.5,0.2-1,0.4-1.5c0-0.1,0-0.1,0-0.2l0.9-3.2h1l-1.7,5.5H189z"/>
			<path id="XMLID_766_" class="st2" d="M197,40.9c0,0.6-0.2,1-0.6,1.4c-0.3,0.3-0.8,0.5-1.4,0.5c-0.7,0-1.3-0.2-1.6-0.7
				s-0.5-1.2-0.5-2.3c0-1,0.2-1.7,0.5-2.2s0.9-0.7,1.6-0.7c0.7,0,1.2,0.2,1.5,0.5c0.3,0.4,0.5,0.9,0.5,1.7V40h-3.1v0.3
				c0,0.5,0.1,0.9,0.3,1.2c0.2,0.2,0.5,0.4,0.8,0.4s0.5-0.1,0.7-0.3s0.3-0.4,0.3-0.8L197,40.9L197,40.9z M193.9,39.4h2.1v-0.5
				c0-0.4-0.1-0.7-0.3-0.9s-0.4-0.3-0.8-0.3c-0.4,0-0.6,0.1-0.8,0.4S193.9,38.8,193.9,39.4z"/>
			<path id="XMLID_764_" class="st2" d="M202.5,42.6h-0.9v-7.9h0.9V42.6z"/>
			<path id="XMLID_761_" class="st2" d="M204.2,35.7v-1h0.9v1H204.2z M204.2,42.6v-5.5h0.9v5.5H204.2z"/>
			<path id="XMLID_759_" class="st2" d="M207.1,36.2v-0.4c0-0.3,0-0.5,0.1-0.6s0.2-0.2,0.3-0.3s0.3-0.2,0.5-0.2s0.5-0.1,0.8-0.1h0.2
				v0.7c-0.4,0-0.7,0.1-0.8,0.2s-0.2,0.4-0.2,0.9v0.7h1v0.7h-1v4.8h-0.9v-4.8h-0.8v-0.7h0.8L207.1,36.2L207.1,36.2z"/>
			<path id="XMLID_756_" class="st2" d="M214.1,40.9c0,0.6-0.2,1-0.6,1.4c-0.3,0.3-0.8,0.5-1.4,0.5c-0.7,0-1.3-0.2-1.6-0.7
				s-0.5-1.2-0.5-2.3c0-1,0.2-1.7,0.5-2.2s0.9-0.7,1.6-0.7c0.7,0,1.2,0.2,1.5,0.5c0.3,0.4,0.5,0.9,0.5,1.7V40H211v0.3
				c0,0.5,0.1,0.9,0.3,1.2c0.2,0.2,0.5,0.4,0.8,0.4s0.5-0.1,0.7-0.3s0.3-0.4,0.3-0.8L214.1,40.9L214.1,40.9z M211,39.4h2.1v-0.5
				c0-0.4-0.1-0.7-0.3-0.9s-0.4-0.3-0.8-0.3c-0.4,0-0.6,0.1-0.8,0.4S211,38.8,211,39.4z"/>
		</g>
	</g>
</g>
</svg>
